<svg width="104" height="18" viewBox="0 0 104 18" fill="none" xmlns="http://www.w3.org/2000/svg">
<g id="Frame" clip-path="url(#clip0_676_4569)">
<path id="Vector" d="M1.56497 17.6479C0.522461 17.6479 0 17.4774 0 16.8362C0 16.0036 1.314 16.0246 1.314 15.3204V2.63761C1.25125 1.97543 0 1.97543 0 1.16376C0 0.522584 0.521255 0.352097 1.56497 0.352097H7.07314C12.8106 0.352097 15.5435 4.23871 15.5435 8.89252C15.5435 14.1875 12.8106 17.6467 7.07314 17.6467H1.56497V17.6479ZM5.00743 2.31641V14.9362C5.02794 15.3414 5.4044 15.6836 6.11268 15.6836C10.4939 15.6836 11.8501 13.1423 11.8501 8.89376C11.8501 5.30611 10.4939 2.31764 6.11268 2.31764H5.00743V2.31641Z" fill="black"/>
<path id="Vector_2" d="M31.7725 15.3093C31.9813 15.9714 33.1915 15.9924 33.1915 16.8251C33.1915 17.4231 32.628 17.6158 31.6893 17.6368H27.8716C26.8279 17.6368 26.3066 17.4663 26.3066 16.8251C26.3066 15.7577 28.2263 15.9282 28.0586 15.4155L26.8279 11.6154H21.1532L19.9019 15.3735C19.7137 15.9282 21.6539 15.7367 21.6539 16.8251C21.6539 17.4663 21.1327 17.6368 20.0889 17.6368H17.8772C16.8347 17.6368 16.2085 17.4663 16.2085 16.8251C16.2085 15.9924 17.3982 15.9714 17.6275 15.3093L22.4479 0.875902C22.6144 0.363205 22.7821 0.363205 23.1984 0.363205H26.2656C26.6831 0.363205 27.0161 0.448449 27.1416 0.875902L31.7725 15.3105V15.3093ZM21.8422 9.54358H26.1606L24.0321 2.96746L21.8422 9.54358Z" fill="black"/>
<path id="Vector_3" d="M40.6604 8.87152L44.5408 2.59438C44.8123 2.14592 42.7888 2.23116 42.7888 1.16376C42.7888 0.522584 43.3101 0.352097 44.3538 0.352097H46.5438C47.5875 0.352097 48.2125 0.522584 48.2125 1.16376C48.2125 1.89019 47.2533 1.93219 46.6898 2.85011L41.8078 10.7938V15.3846C41.8706 16.0258 43.1218 16.0258 43.1218 16.8362C43.1218 17.4774 42.6006 17.6479 41.5569 17.6479H38.3654C37.3229 17.6479 36.8004 17.4774 36.8004 16.8362C36.8004 16.0246 38.0517 16.0246 38.1144 15.3846V11.8192L32.8367 2.59438C32.5025 2.03967 31.4395 1.95319 31.4395 1.16376C31.4395 0.586825 31.9607 0.352097 32.8584 0.352097H37.1974C38.2411 0.352097 38.7624 0.522584 38.7624 1.16376C38.7624 2.21016 36.7594 2.14592 36.9886 2.53013L40.6604 8.87152Z" fill="black"/>
<path id="Vector_4" d="M62.9631 0C68.4917 0 71.0365 3.82238 71.0365 9.11737C71.0365 14.4124 68.4917 18 62.9631 18C57.4344 18 54.8896 14.4124 54.8896 9.11737C54.8896 3.82238 57.4344 0 62.9631 0ZM62.9631 15.9294C65.4668 15.9294 67.3225 13.7724 67.3443 9.1186C67.3648 4.44255 65.4668 2.07179 62.9631 2.07179C60.4594 2.07179 58.5819 4.44132 58.5819 9.1186C58.5819 13.7959 60.4594 15.9294 62.9631 15.9294Z" fill="black"/>
<path id="Vector_5" d="M72.4775 16.8362C72.4775 16.0036 73.7915 16.0246 73.7915 15.3204V2.67962C73.7915 1.97543 72.4775 1.99643 72.4775 1.16376C72.4775 0.522584 72.9988 0.352097 74.0425 0.352097H76.901C77.3185 0.352097 77.485 0.522584 77.7565 0.864794L85.5379 11.178V2.67962C85.5379 1.97543 84.2239 1.99643 84.2239 1.16376C84.2239 0.522584 84.7451 0.352097 85.7888 0.352097H87.2078C88.2503 0.352097 88.9815 0.522584 88.9815 1.16376C88.9815 2.18916 87.4588 1.99643 87.4588 2.61538V17.092C87.4588 17.3909 87.2295 17.6467 86.9375 17.6467H86.187C85.603 17.6467 85.3315 17.1772 84.8935 16.6003L75.7137 4.13V15.3822C75.7137 16.0011 77.2364 15.8096 77.2364 16.8338C77.2364 17.475 76.5064 17.6454 75.4627 17.6454H74.0437C73.0012 17.6454 72.4787 17.475 72.4787 16.8338L72.4775 16.8362Z" fill="black"/>
<path id="Vector_6" d="M90.4185 1.16376C90.4185 0.522584 90.9397 0.352097 91.9834 0.352097H103.25C103.542 0.352097 103.793 0.586825 103.793 0.885796V3.57653C103.793 4.55869 103.542 5.15663 102.874 5.15663C101.747 5.15663 102.124 2.31641 101.06 2.31641H95.4271V7.99561H101.081C101.373 7.99561 101.624 8.23034 101.624 8.52931V9.36198C101.624 9.66095 101.373 9.89568 101.081 9.89568H95.4271V15.6824H101.268C102.333 15.6824 101.852 12.4159 103.083 12.4159C103.75 12.4159 104.001 13.0139 104.001 13.996V17.113C104.001 17.4119 103.751 17.6467 103.458 17.6467H91.9846C90.9421 17.6467 90.4197 17.4762 90.4197 16.835C90.4197 16.0233 91.6709 16.0233 91.7337 15.3834V2.63761C91.6709 1.97543 90.4197 1.97543 90.4197 1.16376H90.4185Z" fill="black"/>
</g>
<defs>
<clipPath id="clip0_676_4569">
<rect width="104" height="18" fill="white"/>
</clipPath>
</defs>
</svg>
