<svg width="162" height="139" viewBox="0 0 162 139" fill="none" xmlns="http://www.w3.org/2000/svg">
<g id="Frame" clip-path="url(#clip0_5_1911)">
<path id="Vector" d="M7.98477 55.546C4.54575 55.546 2.82227 54.9985 2.82227 52.9393C2.82227 50.2652 7.15686 50.3327 7.15686 48.0711V7.33605C6.94988 5.20943 2.82227 5.20943 2.82227 2.60273C2.82227 0.547525 4.54177 0 7.98477 0H26.155C45.0816 0 54.0971 12.482 54.0971 27.4278C54.0971 44.4329 45.0816 55.5421 26.155 55.5421H7.98477V55.546ZM19.3367 6.30844V46.8372C19.4044 48.1386 20.6462 49.2376 22.9827 49.2376C37.4353 49.2376 41.9092 41.0763 41.9092 27.4318C41.9092 15.91 37.4353 6.31241 22.9827 6.31241H19.3367V6.30844Z" fill="white"/>
<path id="Vector_2" d="M107.632 48.0711C108.321 50.1977 112.313 50.2652 112.313 52.9393C112.313 54.8596 110.455 55.4786 107.358 55.546H94.764C91.321 55.546 89.6015 54.9985 89.6015 52.9393C89.6015 49.5114 95.9343 50.0589 95.381 48.4123L91.321 36.2081H72.6015L68.4739 48.2774C67.8529 50.0589 74.2533 49.4439 74.2533 52.9393C74.2533 54.9985 72.5338 55.546 69.0908 55.546H61.7949C58.3558 55.546 56.29 54.9985 56.29 52.9393C56.29 50.2652 60.2147 50.1977 60.9709 48.0711L76.8724 1.71399C77.4217 0.0674438 77.975 0.0674438 79.3482 0.0674438H89.4662C90.8434 0.0674438 91.942 0.341206 92.3559 1.71399L107.632 48.0711ZM74.8743 29.5545H89.1199L82.0986 8.43506L74.8743 29.5545Z" fill="white"/>
<path id="Vector_3" d="M136.951 27.3604L149.752 7.20115C150.648 5.76092 143.973 6.03468 143.973 2.6067C143.973 0.547525 145.692 0 149.135 0H156.36C159.803 0 161.864 0.547525 161.864 2.6067C161.864 4.93963 158.7 5.07453 156.841 8.02244L140.737 33.5339V48.2774C140.944 50.3366 145.071 50.3366 145.071 52.9393C145.071 54.9985 143.352 55.546 139.909 55.546H129.381C125.942 55.546 124.218 54.9985 124.218 52.9393C124.218 50.3326 128.346 50.3326 128.553 48.2774V36.827L111.143 7.20115C110.04 5.41971 106.534 5.14198 106.534 2.6067C106.534 0.753839 108.253 0 111.215 0H125.528C128.971 0 130.69 0.547525 130.69 2.6067C130.69 5.96723 124.083 5.76092 124.839 6.99483L136.951 27.3604Z" fill="white"/>
<path id="Vector_4" d="M26.6325 81.1924C44.8704 81.1924 53.265 93.4681 53.265 110.473C53.265 127.478 44.8704 139 26.6325 139C8.39455 139 0 127.482 0 110.473C0 93.4642 8.39455 81.1924 26.6325 81.1924ZM26.6325 132.35C34.8917 132.35 41.0135 125.423 41.0851 110.477C41.1528 95.4598 34.8917 87.8461 26.6325 87.8461C18.3733 87.8461 12.1799 95.4559 12.1799 110.477C12.1799 125.498 18.3733 132.35 26.6325 132.35Z" fill="white"/>
<path id="Vector_5" d="M58.0176 135.231C58.0176 132.557 62.3522 132.624 62.3522 130.363V89.7664C62.3522 87.5049 58.0176 87.5723 58.0176 84.8982C58.0176 82.839 59.7371 82.2915 63.1801 82.2915H72.6095C73.9867 82.2915 74.536 82.839 75.4316 83.938L101.101 117.059V89.7664C101.101 87.5049 96.7662 87.5723 96.7662 84.8982C96.7662 82.839 98.4857 82.2915 101.929 82.2915H106.61C110.049 82.2915 112.461 82.839 112.461 84.8982C112.461 88.1913 107.438 87.5723 107.438 89.5601V136.052C107.438 137.012 106.681 137.834 105.718 137.834H103.242C101.316 137.834 100.42 136.326 98.9753 134.473L68.6929 94.4243V130.561C68.6929 132.549 73.7161 131.934 73.7161 135.223C73.7161 137.282 71.3079 137.83 67.865 137.83H63.1841C59.7451 137.83 58.0216 137.282 58.0216 135.223L58.0176 135.231Z" fill="white"/>
<path id="Vector_6" d="M117.201 84.8942C117.201 82.835 118.921 82.2875 122.364 82.2875H159.528C160.491 82.2875 161.319 83.0413 161.319 84.0015V92.6428C161.319 95.7971 160.491 97.7174 158.29 97.7174C154.573 97.7174 155.814 88.5959 152.304 88.5959H133.724V106.835H152.375C153.339 106.835 154.167 107.589 154.167 108.549V111.223C154.167 112.183 153.339 112.937 152.375 112.937H133.724V131.521H152.992C156.503 131.521 154.919 121.031 158.979 121.031C161.18 121.031 162.008 122.951 162.008 126.105V136.116C162.008 137.076 161.184 137.83 160.217 137.83H122.368C118.929 137.83 117.205 137.282 117.205 135.223C117.205 132.616 121.333 132.616 121.54 130.561V89.6235C121.333 87.4969 117.205 87.4969 117.205 84.8902L117.201 84.8942Z" fill="white"/>
</g>
<defs>
<clipPath id="clip0_5_1911">
<rect width="162" height="139" fill="white"/>
</clipPath>
</defs>
</svg>
